<svg width="50" height="50" viewBox="0 0 50 50" fill="none" xmlns="http://www.w3.org/2000/svg">
<path d="M38 0H12C5.37258 0 0 5.37258 0 12V38C0 44.6274 5.37258 50 12 50H38C44.6274 50 50 44.6274 50 38V12C50 5.37258 44.6274 0 38 0Z" fill="#3A56A6"/>
<path d="M5.30256 32H2.49006L7.6108 17.4545H10.8636L15.9915 32H13.179L9.29403 20.4375H9.1804L5.30256 32ZM5.39489 26.2969H13.0653V28.4134H5.39489V26.2969ZM25.5778 21.4531C25.5115 20.8329 25.2321 20.3499 24.7397 20.0043C24.252 19.6586 23.6175 19.4858 22.8363 19.4858C22.2871 19.4858 21.8159 19.5687 21.4229 19.7344C21.0299 19.9001 20.7293 20.125 20.521 20.4091C20.3126 20.6932 20.2061 21.0175 20.2013 21.3821C20.2013 21.6851 20.27 21.9479 20.4073 22.1705C20.5494 22.393 20.7411 22.5824 20.9826 22.7386C21.2241 22.8902 21.4916 23.018 21.7852 23.1222C22.0787 23.2263 22.3746 23.3139 22.6729 23.3849L24.0366 23.7259C24.5858 23.8537 25.1138 24.0265 25.6204 24.2443C26.1317 24.4621 26.5887 24.7367 26.9911 25.0682C27.3983 25.3996 27.7203 25.7997 27.957 26.2685C28.1938 26.7372 28.3121 27.2865 28.3121 27.9162C28.3121 28.7685 28.0943 29.5189 27.6587 30.1676C27.2231 30.8116 26.5934 31.3158 25.7695 31.6804C24.9504 32.0402 23.9585 32.2202 22.7937 32.2202C21.6621 32.2202 20.6796 32.045 19.8462 31.6946C19.0176 31.3442 18.369 30.8329 17.9002 30.1605C17.4362 29.4882 17.1853 28.669 17.1474 27.7031H19.7397C19.7776 28.2098 19.9338 28.6312 20.2085 28.9673C20.4831 29.3035 20.8406 29.5545 21.2809 29.7202C21.726 29.8859 22.2231 29.9688 22.7724 29.9688C23.3453 29.9688 23.8472 29.8835 24.2781 29.7131C24.7137 29.5379 25.0546 29.2964 25.3008 28.9886C25.547 28.6761 25.6725 28.3116 25.6772 27.8949C25.6725 27.5161 25.5612 27.2036 25.3434 26.9574C25.1256 26.7064 24.8202 26.4981 24.4272 26.3324C24.0389 26.1619 23.5844 26.0104 23.0636 25.8778L21.4087 25.4517C20.2108 25.1439 19.2638 24.6776 18.5678 24.0526C17.8765 23.4228 17.5309 22.5871 17.5309 21.5455C17.5309 20.6884 17.7629 19.938 18.2269 19.294C18.6957 18.6501 19.3325 18.1506 20.1374 17.7955C20.9424 17.4356 21.8538 17.2557 22.8718 17.2557C23.904 17.2557 24.8084 17.4356 25.5849 17.7955C26.3661 18.1506 26.9793 18.6454 27.4244 19.2798C27.8694 19.9096 28.0991 20.634 28.1133 21.4531H25.5778ZM30.6612 17.4545H33.8857L38.2038 27.9943H38.3743L42.6925 17.4545H45.9169V32H43.3885V22.0071H43.2536L39.2337 31.9574H37.3445L33.3246 21.9858H33.1896V32H30.6612V17.4545Z" fill="white"/>
</svg>
