<svg width="50" height="50" viewBox="0 0 50 50" fill="none" xmlns="http://www.w3.org/2000/svg">
<path d="M38.2812 0H11.7188C5.24666 0 0 5.24666 0 11.7188V38.2812C0 44.7533 5.24666 50 11.7188 50H38.2812C44.7533 50 50 44.7533 50 38.2812V11.7188C50 5.24666 44.7533 0 38.2812 0Z" fill="#242938"/>
<path d="M16.5516 21.8674C16.5516 22.3428 16.6031 22.7281 16.693 23.0109C16.7958 23.2936 16.9243 23.602 17.1042 23.9361C17.1684 24.0389 17.1941 24.1416 17.1941 24.2316C17.1941 24.3602 17.117 24.4887 16.95 24.617L16.1405 25.1568C16.0248 25.2338 15.9092 25.2725 15.8064 25.2725C15.6779 25.2725 15.5494 25.2082 15.4209 25.0926C15.241 24.8998 15.0868 24.6941 14.9583 24.4887C14.8298 24.2701 14.7013 24.026 14.56 23.7305C13.5577 24.9127 12.2985 25.5037 10.7822 25.5037C9.70288 25.5037 8.84196 25.1953 8.21233 24.5785C7.58271 23.9617 7.26147 23.1395 7.26147 22.1115C7.26147 21.0191 7.64694 20.1326 8.43077 19.4644C9.2146 18.7962 10.2554 18.4622 11.5789 18.4622C12.0158 18.4622 12.4655 18.5007 12.9409 18.565C13.4164 18.6292 13.9047 18.732 14.4186 18.8477V17.9096C14.4186 16.9331 14.2131 16.2521 13.8147 15.8537C13.4035 15.4554 12.7097 15.2626 11.7202 15.2626C11.2705 15.2626 10.8079 15.314 10.3325 15.4297C9.85706 15.5453 9.39448 15.6867 8.94476 15.8666C8.73915 15.9565 8.58497 16.0079 8.49501 16.0336C8.40507 16.0593 8.34083 16.0722 8.28942 16.0722C8.10954 16.0722 8.01958 15.9437 8.01958 15.6738V15.0442C8.01958 14.8386 8.04528 14.6844 8.10954 14.5945C8.17378 14.5045 8.28942 14.4146 8.46933 14.3246C8.91905 14.0933 9.45874 13.9006 10.0883 13.7464C10.718 13.5794 11.3862 13.5023 12.0929 13.5023C13.622 13.5023 14.7399 13.8492 15.4594 14.5431C16.1662 15.237 16.526 16.2906 16.526 17.704V21.8674H16.5516ZM11.3348 23.8205C11.7588 23.8205 12.1957 23.7434 12.6583 23.5891C13.1208 23.435 13.532 23.1521 13.879 22.7668C14.0846 22.5227 14.2387 22.2527 14.3158 21.9443C14.3929 21.6359 14.4443 21.2633 14.4443 20.8266V20.2867C14.0717 20.1969 13.6734 20.1197 13.2622 20.0684C12.851 20.017 12.4527 19.9912 12.0543 19.9912C11.1934 19.9912 10.5638 20.1584 10.1398 20.5053C9.71571 20.8521 9.51013 21.3404 9.51013 21.983C9.51013 22.5869 9.66433 23.0365 9.98556 23.3449C10.294 23.6662 10.7437 23.8205 11.3348 23.8205ZM21.6529 25.2082C21.4216 25.2082 21.2673 25.1695 21.1646 25.0797C21.0619 25.0025 20.9718 24.8227 20.8949 24.5785L17.8752 14.6459C17.7981 14.3889 17.7595 14.2218 17.7595 14.1319C17.7595 13.9263 17.8623 13.8106 18.0679 13.8106H19.3272C19.5712 13.8106 19.7384 13.8492 19.8283 13.9391C19.931 14.0163 20.0082 14.1961 20.0853 14.4403L22.2439 22.9467L24.2486 14.4403C24.3128 14.1833 24.3898 14.0163 24.4927 13.9391C24.5955 13.8621 24.7753 13.8106 25.0066 13.8106H26.0345C26.2787 13.8106 26.4458 13.8492 26.5486 13.9391C26.6513 14.0163 26.7414 14.1961 26.7927 14.4403L28.823 23.0494L31.0458 14.4403C31.123 14.1833 31.213 14.0163 31.3029 13.9391C31.4056 13.8621 31.5728 13.8106 31.8041 13.8106H32.999C33.2046 13.8106 33.3203 13.9134 33.3203 14.1319C33.3203 14.1961 33.3074 14.2604 33.2945 14.3375C33.2818 14.4146 33.256 14.5174 33.2046 14.6587L30.108 24.5914C30.0308 24.8484 29.9408 25.0154 29.838 25.0926C29.7353 25.1695 29.5681 25.2211 29.3498 25.2211H28.2447C28.0005 25.2211 27.8335 25.1824 27.7308 25.0926C27.6279 25.0025 27.538 24.8355 27.4867 24.5785L25.4949 16.2906L23.5162 24.5656C23.4519 24.8227 23.3748 24.9896 23.272 25.0797C23.1691 25.1695 22.9892 25.2082 22.758 25.2082H21.6529ZM38.1646 25.5551C37.4964 25.5551 36.8283 25.4779 36.1857 25.3238C35.5433 25.1695 35.0421 25.0025 34.708 24.8098C34.5025 24.6941 34.3611 24.5656 34.3097 24.45C34.2583 24.3344 34.2326 24.2059 34.2326 24.0902V23.435C34.2326 23.165 34.3353 23.0365 34.5281 23.0365C34.6052 23.0365 34.6824 23.0494 34.7593 23.0752C34.8365 23.1008 34.9521 23.1521 35.0806 23.2037C35.5175 23.3963 35.9929 23.5506 36.4941 23.6533C37.0082 23.7563 37.5091 23.8076 38.0232 23.8076C38.8328 23.8076 39.4623 23.6662 39.8992 23.3836C40.3361 23.1008 40.5673 22.6896 40.5673 22.1629C40.5673 21.8031 40.4517 21.5074 40.2205 21.2633C39.9892 21.0191 39.5523 20.8008 38.9226 20.5951L37.0595 20.017C36.1214 19.7215 35.4275 19.2845 35.0035 18.7063C34.5794 18.1409 34.3611 17.5113 34.3611 16.8431C34.3611 16.3035 34.4767 15.828 34.708 15.4168C34.9392 15.0056 35.2476 14.6459 35.6332 14.3632C36.0187 14.0676 36.4556 13.8492 36.9695 13.695C37.4835 13.5408 38.0232 13.4766 38.5886 13.4766C38.8712 13.4766 39.1667 13.4894 39.4496 13.528C39.7451 13.5665 40.0148 13.6179 40.2847 13.6693C40.5417 13.7336 40.7859 13.7978 41.0171 13.8749C41.2484 13.952 41.4283 14.0291 41.5568 14.1062C41.7367 14.209 41.8652 14.3118 41.9423 14.4274C42.0193 14.5302 42.058 14.6716 42.058 14.8515V15.4554C42.058 15.7252 41.9552 15.8666 41.7625 15.8666C41.6595 15.8666 41.4925 15.8152 41.2742 15.7124C40.5417 15.3783 39.7193 15.2112 38.807 15.2112C38.0746 15.2112 37.4964 15.3269 37.098 15.571C36.6998 15.8152 36.4941 16.1878 36.4941 16.7146C36.4941 17.0744 36.6226 17.3828 36.8796 17.627C37.1365 17.8711 37.6121 18.1152 38.2931 18.3337L40.1177 18.9119C41.0427 19.2074 41.7111 19.6186 42.1093 20.1455C42.5076 20.6723 42.7003 21.2762 42.7003 21.9443C42.7003 22.4969 42.5847 22.998 42.3664 23.435C42.1351 23.8719 41.8267 24.2572 41.4283 24.5656C41.03 24.8869 40.5544 25.1182 40.0021 25.2854C39.4238 25.4652 38.8199 25.5551 38.1646 25.5551Z" fill="white"/>
<path fill-rule="evenodd" clip-rule="evenodd" d="M40.5932 31.8C36.3656 34.9225 30.2236 36.5801 24.9424 36.5801C17.5411 36.5801 10.8722 33.843 5.83521 29.2944C5.43689 28.9346 5.79668 28.4463 6.27211 28.7289C11.7203 31.8899 18.4406 33.8045 25.3922 33.8045C30.0822 33.8045 35.235 32.8279 39.9764 30.8235C40.683 30.5022 41.2869 31.286 40.5932 31.8Z" fill="#FF9900"/>
<path fill-rule="evenodd" clip-rule="evenodd" d="M42.3535 29.7955C41.8139 29.1015 38.7815 29.4613 37.4065 29.6283C36.9953 29.6799 36.9311 29.3199 37.3037 29.0502C39.7194 27.3541 43.6899 27.8424 44.1526 28.4076C44.6151 28.9859 44.0241 32.9564 41.7625 34.8582C41.4155 35.1537 41.0815 34.9994 41.2356 34.614C41.7496 33.342 42.8932 30.4763 42.3535 29.7955Z" fill="#FF9900"/>
</svg>
