<svg width="50" height="50" viewBox="0 0 50 50" fill="none" xmlns="http://www.w3.org/2000/svg">
<g clip-path="url(#clip0_409_3)">
<path d="M38.2812 0H11.7188C5.24666 0 0 5.24666 0 11.7188V38.2812C0 44.7533 5.24666 50 11.7188 50H38.2812C44.7533 50 50 44.7533 50 38.2812V11.7188C50 5.24666 44.7533 0 38.2812 0Z" fill="#2396ED"/>
<path d="M27.5756 23.8521H31.6219V20.1912H27.5756V23.8521ZM22.7588 23.8521H26.8049V20.1912H22.7588V23.8521ZM18.0382 23.8521H22.0844V20.1912H18.0382V23.8521ZM13.3176 23.8521H17.2674V20.1912H13.3176V23.8521ZM8.50065 23.8521H12.5469V20.1912H8.50065V23.8521ZM13.3176 19.4206H17.2674V15.7597H13.3176V19.4206ZM18.0382 19.4206H22.0844V15.7597H18.0382V19.4206ZM22.7588 19.4206H26.8049V15.7597H22.7588V19.4206ZM22.7588 14.989H26.8049V11.3281H22.7588V14.989ZM44.5312 22.2145C44.5312 22.2145 42.7971 20.5766 39.2326 21.1547C38.8473 18.3608 35.8607 16.7231 35.8607 16.7231C35.8607 16.7231 33.067 20.0949 35.09 23.8521C34.5121 24.1412 33.5486 24.5266 32.1035 24.5266H5.61049C5.12879 26.357 5.12879 38.4955 18.4235 38.4955C27.9609 38.4955 35.09 34.0641 38.4619 25.9715C43.4715 26.357 44.5312 22.2145 44.5312 22.2145Z" fill="white"/>
</g>
<defs>
<clipPath id="clip0_409_3">
<rect width="50" height="50" fill="white"/>
</clipPath>
</defs>
</svg>
