<?xml version="1.0" standalone="no"?>
<!DOCTYPE svg PUBLIC "-//W3C//DTD SVG 20010904//EN"
 "http://www.w3.org/TR/2001/REC-SVG-20010904/DTD/svg10.dtd">
<svg version="1.0" xmlns="http://www.w3.org/2000/svg"
 width="1200.000000pt" height="1200.000000pt" viewBox="0 0 1200.000000 1200.000000"
 preserveAspectRatio="xMidYMid meet">

<g transform="translate(0.000000,1200.000000) scale(0.100000,-0.100000)"
fill="#000000" stroke="none">
<path d="M5355 11244 c-1067 -68 -2035 -448 -2847 -1119 -167 -138 -481 -451
-618 -615 -681 -818 -1062 -1773 -1131 -2835 -14 -212 -6 -574 16 -785 120
-1131 611 -2160 1412 -2955 499 -496 1075 -865 1748 -1117 149 -56 164 -60
225 -56 144 11 270 123 320 287 18 58 20 93 20 413 l0 351 -32 -7 c-310 -65
-670 -61 -916 10 -253 73 -444 185 -618 361 -110 111 -175 209 -250 374 -142
316 -289 519 -468 648 -175 127 -219 214 -130 256 118 56 327 29 514 -65 163
-82 298 -206 414 -382 233 -351 564 -520 1021 -522 164 0 270 13 386 50 l76
24 7 146 c10 209 43 382 93 477 8 16 13 30 11 32 -2 2 -51 13 -108 25 -571
116 -1048 320 -1420 609 -124 96 -314 290 -407 414 -191 257 -313 534 -377
857 -68 341 -57 761 29 1118 88 364 284 738 519 990 l60 63 -36 67 c-81 152
-118 319 -125 562 -5 206 7 318 52 475 28 99 111 274 154 326 l28 33 139 -12
c167 -14 300 -41 443 -88 277 -93 542 -254 764 -464 l97 -92 92 31 c271 90
603 138 1003 148 452 10 855 -34 1198 -133 l119 -34 98 94 c253 242 592 422
941 500 119 26 273 46 357 46 l50 0 40 -62 c89 -138 149 -303 178 -493 24
-155 14 -465 -19 -605 -28 -114 -43 -160 -76 -231 l-22 -47 85 -101 c370 -443
555 -1030 533 -1691 -3 -96 -13 -222 -22 -280 -121 -807 -618 -1410 -1456
-1768 -228 -98 -582 -201 -841 -246 l-38 -7 25 -49 c37 -74 64 -182 75 -310 5
-66 10 -466 10 -931 0 -790 1 -819 20 -882 39 -127 136 -235 243 -271 85 -29
133 -22 305 43 467 175 862 392 1251 686 343 260 661 576 923 916 917 1193
1229 2733 848 4195 -180 694 -508 1327 -981 1894 -130 157 -438 465 -589 591
-776 645 -1650 1016 -2650 1124 -138 15 -634 27 -765 19z"/>
</g>
</svg>
