<?xml version="1.0" standalone="no"?>
<!DOCTYPE svg PUBLIC "-//W3C//DTD SVG 20010904//EN"
 "http://www.w3.org/TR/2001/REC-SVG-20010904/DTD/svg10.dtd">
<svg version="1.0" xmlns="http://www.w3.org/2000/svg"
 width="56.000000pt" height="56.000000pt" viewBox="0 0 56.000000 56.000000"
 preserveAspectRatio="xMidYMid meet">

<g transform="translate(0.000000,56.000000) scale(0.100000,-0.100000)"
fill="#000000" stroke="none">
<path d="M180 458 c-117 -63 -145 -215 -57 -314 29 -34 75 -64 97 -64 17 0 7
45 -10 46 -34 2 -40 5 -60 35 -29 39 -20 47 16 14 15 -14 35 -24 43 -23 21 4
27 38 7 38 -8 0 -27 10 -41 23 -20 17 -26 32 -27 64 0 22 3 47 8 54 4 8 8 25
8 39 1 19 5 24 21 21 63 -11 140 -12 167 0 25 10 31 10 39 -2 5 -8 7 -22 5
-31 -2 -10 0 -21 5 -24 5 -3 9 -25 9 -50 0 -34 -6 -51 -25 -69 -13 -14 -31
-25 -40 -25 -12 0 -15 -12 -15 -55 0 -59 5 -63 48 -41 64 33 112 112 112 184
0 56 -45 138 -93 170 -58 39 -155 43 -217 10z"/>
</g>
</svg>
