<svg width="92" height="92" viewBox="0 0 92 92" fill="none" xmlns="http://www.w3.org/2000/svg">
<path d="M58.56 16H29.44C22.0173 16 16 22.0173 16 29.44V58.56C16 65.9827 22.0173 72 29.44 72H58.56C65.9827 72 72 65.9827 72 58.56V29.44C72 22.0173 65.9827 16 58.56 16Z" fill="#282828"/>
<g filter="url(#filter0_d_206_111)">
<circle cx="44" cy="44" r="26" fill="#777BB3"/>
</g>
<path d="M25.072 53.048C24.224 53.048 23.8 52.816 23.8 52.352V37.088C23.8 36.496 24.088 36.2 24.664 36.2H29.656C30.168 36.2 30.744 36.264 31.384 36.392C32.04 36.504 32.656 36.736 33.232 37.088C33.824 37.424 34.304 37.928 34.672 38.6C35.04 39.272 35.224 40.16 35.224 41.264C35.224 42.176 35.08 42.944 34.792 43.568C34.52 44.176 34.16 44.672 33.712 45.056C33.28 45.424 32.816 45.712 32.32 45.92C31.824 46.112 31.36 46.248 30.928 46.328C30.496 46.392 30.152 46.424 29.896 46.424H26.944V52.352C26.944 52.816 26.52 53.048 25.672 53.048H25.072ZM26.944 43.712H29.632C29.856 43.712 30.104 43.68 30.376 43.616C30.664 43.552 30.928 43.432 31.168 43.256C31.408 43.08 31.608 42.832 31.768 42.512C31.928 42.192 32.008 41.776 32.008 41.264C32.008 40.608 31.872 40.112 31.6 39.776C31.328 39.44 31 39.208 30.616 39.08C30.248 38.952 29.88 38.888 29.512 38.888H26.944V43.712ZM38.9755 53.048C38.1275 53.048 37.7035 52.816 37.7035 52.352V36.848C37.7035 36.384 38.1275 36.152 38.9755 36.152H39.5995C40.4475 36.152 40.8715 36.384 40.8715 36.848V43.064H48.1195V36.848C48.1195 36.384 48.5435 36.152 49.3915 36.152H50.0155C50.8635 36.152 51.2875 36.384 51.2875 36.848V52.352C51.2875 52.816 50.8635 53.048 50.0155 53.048H49.3915C48.5435 53.048 48.1195 52.816 48.1195 52.352V45.776H40.8715V52.352C40.8715 52.816 40.4475 53.048 39.5995 53.048H38.9755ZM56.3611 53.048C55.5131 53.048 55.0891 52.816 55.0891 52.352V37.088C55.0891 36.496 55.3771 36.2 55.9531 36.2H60.9451C61.4571 36.2 62.0331 36.264 62.6731 36.392C63.3291 36.504 63.9451 36.736 64.5211 37.088C65.1131 37.424 65.5931 37.928 65.9611 38.6C66.3291 39.272 66.5131 40.16 66.5131 41.264C66.5131 42.176 66.3691 42.944 66.0811 43.568C65.8091 44.176 65.4491 44.672 65.0011 45.056C64.5691 45.424 64.1051 45.712 63.6091 45.92C63.1131 46.112 62.6491 46.248 62.2171 46.328C61.7851 46.392 61.4411 46.424 61.1851 46.424H58.2331V52.352C58.2331 52.816 57.8091 53.048 56.9611 53.048H56.3611ZM58.2331 43.712H60.9211C61.1451 43.712 61.3931 43.68 61.6651 43.616C61.9531 43.552 62.2171 43.432 62.4571 43.256C62.6971 43.08 62.8971 42.832 63.0571 42.512C63.2171 42.192 63.2971 41.776 63.2971 41.264C63.2971 40.608 63.1611 40.112 62.8891 39.776C62.6171 39.44 62.2891 39.208 61.9051 39.08C61.5371 38.952 61.1691 38.888 60.8011 38.888H58.2331V43.712Z" fill="black"/>
<defs>
<filter id="filter0_d_206_111" x="0" y="0" width="92" height="92" filterUnits="userSpaceOnUse" color-interpolation-filters="sRGB">
<feFlood flood-opacity="0" result="BackgroundImageFix"/>
<feColorMatrix in="SourceAlpha" type="matrix" values="0 0 0 0 0 0 0 0 0 0 0 0 0 0 0 0 0 0 127 0" result="hardAlpha"/>
<feOffset dx="2" dy="2"/>
<feGaussianBlur stdDeviation="10"/>
<feComposite in2="hardAlpha" operator="out"/>
<feColorMatrix type="matrix" values="0 0 0 0 0.766667 0 0 0 0 0.766667 0 0 0 0 0.766667 0 0 0 0.25 0"/>
<feBlend mode="normal" in2="BackgroundImageFix" result="effect1_dropShadow_206_111"/>
<feBlend mode="normal" in="SourceGraphic" in2="effect1_dropShadow_206_111" result="shape"/>
</filter>
</defs>
</svg>
