<?xml version="1.0" standalone="no"?>
<!DOCTYPE svg PUBLIC "-//W3C//DTD SVG 20010904//EN"
 "http://www.w3.org/TR/2001/REC-SVG-20010904/DTD/svg10.dtd">
<svg version="1.0" xmlns="http://www.w3.org/2000/svg"
 width="56.000000pt" height="56.000000pt" viewBox="0 0 56.000000 56.000000"
 preserveAspectRatio="xMidYMid meet">

<g transform="translate(0.000000,56.000000) scale(0.100000,-0.100000)"
fill="#000000" stroke="none">
<path d="M100 553 c-41 -8 -79 -42 -90 -81 -10 -38 -14 -292 -5 -292 4 0 19 7
34 15 28 14 29 16 33 114 6 159 39 185 230 179 163 -5 186 -32 187 -211 1
-113 -13 -159 -59 -185 -35 -20 -36 -24 -14 -57 37 -57 126 -8 139 77 4 25 5
117 3 206 -5 235 -11 241 -273 240 -88 0 -171 -3 -185 -5z"/>
<path d="M180 443 c-14 -3 -33 -12 -42 -20 -20 -18 -32 -96 -23 -157 7 -42 10
-46 36 -46 28 0 28 1 23 43 -11 87 68 147 149 113 74 -30 85 -142 19 -183 -15
-9 -29 -18 -31 -20 -3 -2 6 -14 19 -28 28 -30 59 -32 91 -6 23 18 24 25 24
140 0 159 -3 163 -142 167 -54 1 -109 0 -123 -3z m230 -39 c11 -12 10 -18 -3
-32 -16 -15 -18 -15 -34 0 -13 14 -14 20 -3 32 7 9 16 16 20 16 4 0 13 -7 20
-16z"/>
<path d="M250 337 c-53 -27 -30 -117 30 -117 39 0 63 22 63 59 0 52 -47 81
-93 58z"/>
</g>
</svg>
