<?xml version="1.0" standalone="no"?>
<!DOCTYPE svg PUBLIC "-//W3C//DTD SVG 20010904//EN"
 "http://www.w3.org/TR/2001/REC-SVG-20010904/DTD/svg10.dtd">
<svg version="1.0" xmlns="http://www.w3.org/2000/svg"
 width="1000.000000pt" height="1000.000000pt" viewBox="0 0 1000.000000 1000.000000"
 preserveAspectRatio="xMidYMid meet">

<g transform="translate(0.000000,1000.000000) scale(0.100000,-0.100000)"
fill="#000000" stroke="none">
<path d="M2540 9989 c-442 -9 -691 -37 -939 -105 -477 -130 -884 -413 -1173
-815 -186 -260 -308 -566 -367 -919 -60 -361 -64 -609 -58 -2978 3 -1113 8
-2026 10 -2029 3 -3 39 17 79 45 65 44 194 122 202 122 2 0 41 21 87 47 46 25
122 65 169 89 47 23 92 49 99 58 7 9 17 13 22 10 5 -3 9 1 9 9 0 8 19 22 43
32 23 10 66 28 95 41 28 13 52 19 52 13 0 -5 -4 -9 -10 -9 -5 0 -10 -4 -10
-10 0 -17 20 -11 45 15 14 13 25 19 25 14 0 -12 18 -7 125 34 44 16 89 38 100
48 17 15 95 49 112 49 3 0 0 -7 -7 -15 -10 -12 -10 -15 3 -15 9 0 28 5 43 10
17 7 30 7 33 1 3 -5 6 550 6 1232 1 1256 6 1501 40 1813 52 477 218 879 487
1184 337 381 780 598 1358 664 307 35 561 41 1785 41 1438 0 1692 -10 2024
-80 441 -93 777 -274 1057 -568 243 -255 392 -539 484 -922 87 -359 105 -787
97 -2336 -7 -1408 -21 -1614 -133 -1992 -94 -315 -236 -563 -453 -789 -287
-300 -623 -479 -1070 -572 -89 -18 -106 -24 -103 -39 2 -9 7 -17 11 -17 8 0
61 -77 61 -88 0 -4 29 -38 65 -76 36 -37 65 -72 65 -77 0 -6 18 -34 40 -63 22
-29 40 -56 40 -60 0 -5 6 -22 14 -39 8 -18 17 -40 20 -50 3 -10 10 -16 15 -13
5 3 15 -9 22 -26 7 -18 26 -47 42 -65 16 -18 26 -33 22 -33 -4 0 -2 -7 5 -15
7 -8 10 -15 7 -15 -3 0 0 -15 8 -32 7 -18 19 -33 26 -33 7 0 17 -15 23 -33 6
-18 16 -36 21 -40 14 -10 75 -98 75 -109 0 -4 18 -35 40 -68 22 -33 40 -64 40
-70 0 -5 -5 -3 -10 5 -16 25 -11 6 10 -38 11 -22 20 -47 20 -55 0 -8 10 -29
23 -48 27 -41 57 -103 57 -119 0 -6 7 -25 16 -42 l16 -31 116 7 c276 16 591
80 802 163 618 242 1081 752 1260 1390 65 230 94 457 110 850 13 314 13 4833
0 5148 -15 372 -42 590 -100 810 -192 727 -750 1295 -1467 1494 -190 52 -359
79 -638 103 -162 13 -4683 20 -5245 7z m4830 -9287 c0 -15 -2 -15 -10 -2 -13
20 -13 33 0 25 6 -3 10 -14 10 -23z"/>
<path d="M3810 7994 c-580 -18 -831 -63 -1108 -203 -197 -99 -394 -296 -493
-493 -115 -228 -164 -436 -190 -793 -21 -301 -23 -2697 -1 -2603 2 10 12 18
22 18 13 0 17 -5 14 -15 -7 -18 -15 -18 170 0 83 8 200 17 259 21 104 6 109 7
118 31 8 22 14 25 40 19 18 -3 59 -6 93 -7 38 0 54 -3 42 -8 -35 -13 -4 -19
149 -26 134 -6 261 -20 380 -42 l40 -8 -44 -5 c-40 -4 -31 -8 86 -31 l131 -25
-37 50 c-64 87 -109 162 -171 286 -219 437 -255 964 -98 1435 157 473 498 866
947 1091 271 135 533 196 851 195 667 -1 1277 -351 1616 -928 345 -586 345
-1321 -1 -1908 -150 -256 -375 -487 -628 -648 -172 -110 -455 -222 -637 -252
-170 -28 -161 -23 -104 -52 27 -14 54 -26 61 -26 7 0 15 -7 17 -14 3 -8 9 -12
14 -9 13 8 259 -183 368 -287 42 -40 81 -74 87 -76 18 -6 284 -283 320 -333
17 -24 43 -55 58 -70 15 -15 49 -57 75 -93 26 -36 52 -65 57 -65 4 0 6 -4 3
-8 -2 -4 4 -27 15 -51 l19 -44 138 7 c423 22 690 96 931 259 85 57 220 188
287 279 62 84 135 232 177 359 106 316 122 630 114 2309 -6 1317 -14 1479 -83
1747 -63 246 -167 435 -328 598 -253 256 -551 367 -1081 406 -137 10 -2421 21
-2695 13z m3255 -609 c84 -22 147 -60 209 -125 61 -64 90 -114 111 -197 65
-249 -105 -503 -363 -543 -288 -45 -547 213 -501 500 41 262 292 430 544 365z
m-4695 -3430 c-14 -8 -32 -14 -40 -14 -8 0 -1 7 15 14 39 18 57 18 25 0z
m-100 0 c0 -2 -9 -9 -20 -15 -16 -9 -18 -8 -14 5 5 13 34 22 34 10z m218 -12
c-16 -2 -40 -2 -55 0 -16 2 -3 4 27 4 30 0 43 -2 28 -4z m-371 -19 c-3 -3 -12
-4 -19 -1 -8 3 -5 6 6 6 11 1 17 -2 13 -5z"/>
<path d="M4825 6205 c-461 -73 -835 -385 -979 -815 -80 -242 -82 -521 -5 -761
105 -327 371 -618 684 -749 459 -190 982 -91 1330 254 173 171 289 383 341
626 22 102 25 361 6 455 -78 370 -290 668 -602 845 -235 132 -519 186 -775
145z"/>
</g>
</svg>
