<?xml version="1.0" standalone="no"?>
<!DOCTYPE svg PUBLIC "-//W3C//DTD SVG 20010904//EN"
 "http://www.w3.org/TR/2001/REC-SVG-20010904/DTD/svg10.dtd">
<svg version="1.0" xmlns="http://www.w3.org/2000/svg"
 width="1000.000000pt" height="1000.000000pt" viewBox="0 0 1000.000000 1000.000000"
 preserveAspectRatio="xMidYMid meet">

<g transform="translate(0.000000,1000.000000) scale(0.100000,-0.100000)"
fill="#000000" stroke="none">
<path d="M1932 9989 c-358 -32 -697 -151 -988 -345 -541 -361 -882 -941 -934
-1588 -14 -178 -14 -5934 0 -6112 26 -324 131 -649 299 -927 348 -576 959
-952 1635 -1007 178 -14 5934 -14 6112 0 898 73 1659 713 1874 1579 70 281 65
8 65 3401 0 3249 2 3122 -47 3350 -48 228 -171 518 -301 713 -297 442 -735
753 -1236 877 -280 70 6 64 -3356 66 -1667 1 -3072 -2 -3123 -7z m453 -1089
c3 -5 31 -10 61 -10 30 0 54 -4 54 -10 0 -5 18 -10 40 -10 22 0 40 -4 40 -10
0 -5 14 -10 30 -10 17 0 30 -4 30 -10 0 -5 11 -10 25 -10 14 0 25 -4 25 -10 0
-5 9 -10 20 -10 11 0 20 -4 20 -10 0 -5 9 -10 20 -10 11 0 20 -4 20 -10 0 -5
9 -10 20 -10 11 0 20 -4 20 -10 0 -5 7 -10 15 -10 8 0 15 -4 15 -10 0 -5 6
-10 13 -10 7 0 19 -9 27 -20 8 -11 20 -20 27 -20 8 0 29 -15 48 -32 104 -97
145 -139 161 -167 10 -17 21 -31 25 -31 4 0 12 -13 19 -30 7 -16 15 -30 19
-30 6 0 70 -130 94 -190 5 -14 13 -33 18 -42 5 -10 9 -31 9 -48 0 -16 5 -30
10 -30 6 0 10 -25 10 -55 0 -30 5 -55 10 -55 6 0 10 -57 10 -150 0 -93 -4
-150 -10 -150 -5 0 -10 -22 -10 -50 0 -27 -4 -50 -10 -50 -5 0 -10 -10 -10
-22 0 -58 -61 -199 -139 -318 -53 -80 -209 -250 -231 -250 -6 0 -24 -13 -42
-30 -17 -16 -37 -30 -44 -30 -8 0 -14 -4 -14 -10 0 -5 -6 -10 -12 -10 -7 0
-24 -9 -38 -20 -14 -11 -33 -20 -42 -20 -10 0 -18 -4 -18 -10 0 -5 -7 -10 -15
-10 -8 0 -23 -4 -33 -9 -88 -45 -267 -81 -402 -81 -78 0 -197 18 -291 43 -73
20 -153 50 -157 60 -2 4 -12 7 -23 7 -10 0 -19 5 -19 10 0 6 -7 10 -15 10 -9
0 -25 9 -37 20 -12 11 -28 20 -35 20 -7 0 -13 4 -13 9 0 5 -9 13 -21 16 -11 4
-40 27 -64 51 -25 24 -48 44 -52 44 -5 0 -24 19 -43 42 -19 22 -44 50 -55 62
-44 46 -135 189 -135 212 0 8 -4 14 -8 14 -5 0 -15 23 -22 50 -7 28 -17 50
-22 50 -4 0 -8 14 -8 30 0 17 -4 30 -10 30 -5 0 -10 18 -10 39 0 22 -4 43 -10
46 -5 3 -10 44 -10 91 0 49 -5 93 -12 105 -10 17 -10 23 0 26 8 3 12 31 12 93
0 49 5 92 10 95 6 3 10 24 10 46 0 21 5 39 10 39 6 0 10 14 10 30 0 17 5 30
10 30 6 0 10 14 10 30 0 17 5 30 10 30 6 0 10 9 10 20 0 11 5 20 10 20 6 0 10
7 10 15 0 16 25 69 41 89 5 6 24 33 42 61 45 70 132 165 193 212 16 12 40 31
53 42 13 11 32 23 42 26 11 4 19 11 19 16 0 5 9 9 20 9 11 0 20 5 20 10 0 6 7
10 15 10 8 0 15 5 15 10 0 6 9 10 20 10 11 0 20 5 20 10 0 6 9 10 20 10 11 0
20 5 20 10 0 6 14 10 30 10 17 0 30 5 30 10 0 6 11 10 24 10 14 0 27 4 30 9 6
9 40 16 138 29 31 4 60 11 64 15 11 11 212 8 219 -3z m4990 -2509 c44 -6 104
-14 133 -17 28 -3 52 -10 52 -15 0 -5 18 -9 40 -9 22 0 40 -4 40 -10 0 -5 16
-10 35 -10 19 0 35 -4 35 -10 0 -5 14 -10 30 -10 17 0 30 -4 30 -10 0 -5 14
-10 30 -10 17 0 30 -4 30 -10 0 -5 9 -10 20 -10 11 0 20 -4 20 -10 0 -5 14
-10 30 -10 17 0 30 -4 30 -10 0 -5 9 -10 20 -10 11 0 20 -4 20 -10 0 -5 9 -10
19 -10 11 0 21 -3 23 -7 2 -5 23 -19 48 -32 25 -14 63 -38 85 -53 22 -16 51
-36 65 -46 13 -9 45 -36 69 -59 25 -24 48 -43 53 -43 4 0 8 -4 8 -10 0 -5 36
-46 80 -91 44 -44 80 -86 80 -94 0 -7 4 -15 8 -17 25 -10 162 -243 162 -275 0
-7 5 -13 10 -13 6 0 10 -9 10 -20 0 -11 5 -20 10 -20 6 0 10 -9 10 -20 0 -11
5 -20 10 -20 6 0 10 -13 10 -30 0 -16 5 -30 10 -30 6 0 10 -13 10 -30 0 -16 5
-30 10 -30 6 0 10 -11 10 -25 0 -14 5 -25 10 -25 6 0 10 -13 10 -30 0 -16 5
-30 10 -30 6 0 10 -15 10 -34 0 -19 4 -37 9 -40 5 -3 12 -22 15 -41 3 -19 9
-51 12 -70 3 -19 10 -35 15 -35 5 0 9 -24 9 -54 0 -30 5 -58 10 -61 6 -3 10
-28 10 -54 0 -26 4 -51 9 -56 5 -6 12 -44 15 -85 4 -41 10 -127 16 -190 22
-271 30 -884 28 -2001 -3 -1104 -4 -1176 -20 -1193 -10 -10 -18 -21 -18 -26 0
-15 -78 -90 -94 -90 -9 0 -16 -3 -16 -8 0 -4 -18 -13 -40 -20 -51 -15 -1305
-18 -1315 -2 -3 6 -17 10 -31 10 -13 0 -24 5 -24 10 0 6 -7 10 -15 10 -8 0
-15 5 -15 10 0 6 -5 10 -10 10 -17 0 -60 47 -60 65 0 8 -4 15 -9 15 -5 0 -13
8 -17 18 -5 9 -12 631 -15 1382 -6 1363 -8 1450 -43 1630 -23 125 -115 370
-138 370 -4 0 -8 7 -8 15 0 8 -4 15 -10 15 -5 0 -10 7 -10 15 0 8 -4 15 -10
15 -5 0 -10 5 -10 10 0 12 -106 120 -118 120 -4 0 -18 9 -30 20 -27 26 -89 60
-107 60 -8 0 -15 5 -15 10 0 6 -9 10 -20 10 -11 0 -20 5 -20 10 0 6 -18 10
-40 10 -22 0 -40 5 -40 10 0 6 -17 10 -38 10 -21 0 -43 5 -49 11 -6 6 -59 8
-149 5 -158 -5 -234 -14 -234 -27 0 -5 -13 -9 -30 -9 -16 0 -30 -4 -30 -10 0
-5 -8 -10 -18 -10 -22 0 -72 -22 -72 -32 0 -5 -9 -8 -20 -8 -11 0 -20 -4 -20
-10 0 -5 -6 -10 -13 -10 -22 0 -158 -125 -214 -197 -18 -23 -40 -57 -50 -77
-9 -20 -20 -36 -25 -36 -4 0 -8 -9 -8 -20 0 -11 -4 -20 -10 -20 -5 0 -10 -6
-10 -13 0 -8 -13 -41 -30 -75 -16 -34 -30 -71 -30 -82 0 -10 -4 -22 -10 -25
-5 -3 -10 -17 -10 -30 0 -13 -4 -27 -10 -30 -5 -3 -10 -22 -10 -41 0 -19 -4
-34 -10 -34 -5 0 -10 -20 -10 -44 0 -25 -4 -48 -10 -51 -5 -3 -10 -30 -10 -60
0 -30 -4 -57 -10 -60 -7 -4 -10 -465 -10 -1351 0 -889 -3 -1344 -10 -1344 -5
0 -10 -8 -10 -18 0 -10 -9 -24 -20 -32 -11 -8 -20 -20 -20 -28 0 -17 -25 -42
-42 -42 -8 0 -20 -9 -28 -20 -8 -12 -26 -20 -42 -20 -15 0 -28 -4 -28 -10 0
-13 -1243 -14 -1268 -1 -9 5 -30 15 -47 22 -27 12 -76 57 -113 103 -8 9 -18
31 -23 49 -13 47 -12 4848 2 4883 16 45 63 113 77 114 6 0 12 5 12 10 0 6 7
10 15 10 8 0 15 5 15 10 0 6 9 10 20 10 11 0 20 5 20 10 0 16 1288 14 1323 -2
15 -7 27 -16 27 -20 0 -5 7 -8 15 -8 20 0 85 -65 85 -85 0 -8 5 -15 10 -15 6
0 10 -9 10 -20 0 -11 5 -20 10 -20 6 0 10 -81 10 -222 l1 -223 25 30 c31 38
34 42 64 85 29 40 187 198 220 220 12 8 32 24 44 35 49 47 235 155 266 155 11
0 20 5 20 10 0 6 9 10 20 10 11 0 20 5 20 10 0 6 9 10 20 10 11 0 20 5 20 10
0 6 14 10 30 10 17 0 30 5 30 10 0 6 16 10 35 10 19 0 35 5 35 10 0 6 16 10
35 10 19 0 35 5 35 10 0 6 15 10 33 10 18 0 37 4 43 9 5 5 34 12 64 15 135 13
222 25 228 30 10 10 510 -1 597 -13z m-4465 -71 c0 -5 9 -10 20 -10 11 0 20
-4 20 -10 0 -5 7 -10 15 -10 20 0 105 -85 105 -105 0 -8 3 -15 8 -15 30 0 32
-134 32 -2464 0 -2498 2 -2391 -47 -2478 -34 -61 -108 -118 -153 -118 -11 0
-20 -4 -20 -10 0 -16 -1199 -13 -1250 2 -22 7 -40 16 -40 20 0 5 -7 8 -16 8
-23 0 -114 98 -121 131 -3 16 -9 29 -14 29 -5 0 -9 1040 -9 2412 0 2533 -1
2454 43 2502 9 11 17 24 17 29 0 13 27 37 42 37 8 0 20 9 28 20 8 11 24 20 37
20 12 0 25 5 28 10 4 6 228 10 641 10 416 0 634 -3 634 -10z"/>
</g>
</svg>
