<?xml version="1.0" standalone="no"?>
<!DOCTYPE svg PUBLIC "-//W3C//DTD SVG 20010904//EN"
 "http://www.w3.org/TR/2001/REC-SVG-20010904/DTD/svg10.dtd">
<svg version="1.0" xmlns="http://www.w3.org/2000/svg"
 width="56.000000pt" height="56.000000pt" viewBox="0 0 56.000000 56.000000"
 preserveAspectRatio="xMidYMid meet">

<g transform="translate(0.000000,56.000000) scale(0.100000,-0.100000)"
fill="#000000" stroke="none">
<path d="M47 544 c-15 -8 -32 -26 -37 -40 -6 -14 -10 -115 -10 -225 0 -218 7
-251 56 -269 14 -6 116 -10 227 -10 181 0 205 2 233 19 41 25 44 44 44 275 0
170 -2 194 -19 222 -25 41 -44 44 -275 44 -151 -1 -197 -4 -219 -16z m123 -64
c11 -11 20 -28 20 -38 0 -31 -29 -62 -59 -62 -57 0 -84 50 -50 93 25 32 61 35
89 7z m5 -142 c3 -13 4 -79 3 -148 l-3 -125 -47 -3 -48 -3 0 144 c0 79 3 147
7 150 3 4 23 7 44 7 32 0 40 -4 44 -22z m131 7 c5 -13 8 -13 27 0 12 8 39 15
60 15 86 0 107 -37 107 -190 l0 -111 -47 3 -48 3 -3 97 c-2 85 -5 99 -22 108
-26 14 -58 -3 -65 -33 -3 -12 -6 -56 -7 -97 l-3 -75 -45 0 -45 0 -3 134 c-1
74 0 141 2 148 8 19 85 17 92 -2z"/>
</g>
</svg>
