<svg width="50" height="50" viewBox="0 0 50 50" fill="none" xmlns="http://www.w3.org/2000/svg">
<path d="M38 0H12C5.37258 0 0 5.37258 0 12V38C0 44.6274 5.37258 50 12 50H38C44.6274 50 50 44.6274 50 38V12C50 5.37258 44.6274 0 38 0Z" fill="#777BB3"/>
<path d="M7.32436 19.7607H13.5546C15.3833 19.7737 16.7084 20.2202 17.5299 21.0995C18.3515 21.9787 18.6225 23.1797 18.3436 24.7023C18.2352 25.398 17.9948 26.0804 17.6229 26.7498C17.2663 27.4191 16.7706 28.0228 16.1351 28.561C15.36 29.2434 14.531 29.6765 13.6476 29.8604C12.7642 30.0443 11.8497 30.136 10.9044 30.136H8.11476L7.23137 33.8766H4L7.32436 19.7607ZM10.0443 22.0051L8.64945 27.9113C8.74244 27.9243 8.83543 27.931 8.92842 27.931C9.03676 27.931 9.14554 27.931 9.25388 27.931C10.7417 27.944 11.9817 27.8196 12.9734 27.557C13.9652 27.2813 14.6319 26.3233 14.9727 24.6826C15.2517 23.3045 14.9727 22.5103 14.1358 22.3004C13.3143 22.0905 12.2839 21.9921 11.0439 22.0051C10.8579 22.0181 10.6799 22.0248 10.5092 22.0248C10.3544 22.0248 10.1917 22.0248 10.021 22.0248L10.0443 22.0051Z" fill="black"/>
<path d="M22.0246 16H25.2327L24.3261 19.7603H27.2087C28.7896 19.7867 29.9673 20.0623 30.7423 20.5872C31.5327 21.112 31.7652 22.1098 31.4397 23.5797L29.8822 30.1356H26.6276L28.1154 23.875C28.2702 23.2186 28.2237 22.7528 27.9759 22.4772C27.7281 22.2015 27.1934 22.0637 26.3718 22.0637L23.7914 22.044L21.8851 30.1356H18.677L22.0246 16Z" fill="black"/>
<path d="M34.8844 19.7607H41.1147C42.9433 19.7737 44.2684 20.2202 45.09 21.0995C45.9115 21.9787 46.1826 23.1797 45.9036 24.7023C45.7953 25.398 45.5549 26.0804 45.1829 26.7498C44.8263 27.4191 44.3307 28.0228 43.6951 28.561C42.9201 29.2434 42.0911 29.6765 41.2077 29.8604C40.3243 30.0443 39.4097 30.136 38.4645 30.136H35.6748L34.7914 33.8766H31.5601L34.8844 19.7607ZM37.6043 22.0051L36.2095 27.9113C36.3025 27.9243 36.3955 27.931 36.4885 27.931C36.5968 27.931 36.7056 27.931 36.8139 27.931C38.3018 27.944 39.5418 27.8196 40.5335 27.557C41.5252 27.2813 42.1919 26.3233 42.5328 24.6826C42.8117 23.3045 42.5328 22.5103 41.6959 22.3004C40.8743 22.0905 39.844 21.9921 38.604 22.0051C38.418 22.0181 38.2399 22.0248 38.0693 22.0248C37.9145 22.0248 37.7517 22.0248 37.5811 22.0248L37.6043 22.0051Z" fill="black"/>
</svg>
